<svg width="22" height="21" viewBox="0 0 22 21" fill="none" xmlns="http://www.w3.org/2000/svg">
<path d="M19.4965 16.3875C19.1229 16.3548 18.8176 16.1973 18.5808 15.9151C18.3442 15.6331 18.2403 15.326 18.2694 14.9939L19.0702 5.84035L2.27653 19.9319C1.9831 20.1781 1.65997 20.2858 1.30709 20.2549C0.954255 20.2241 0.654689 20.0619 0.408473 19.7685C0.162258 19.4751 0.0545878 19.1519 0.085457 18.799C0.11633 18.4462 0.278479 18.1466 0.571907 17.9004L17.3656 3.80886L8.14979 3.00261C7.77618 2.96992 7.4814 2.81342 7.2654 2.53306C7.04939 2.25274 6.95774 1.92576 6.99042 1.55215C7.04205 1.20111 7.20896 0.90721 7.49109 0.670473C7.77324 0.433717 8.08036 0.329857 8.41246 0.358912L20.804 1.44295C21.0114 1.46121 21.1852 1.50775 21.325 1.58278C21.4648 1.65778 21.5917 1.76283 21.7053 1.89827C21.819 2.03371 21.9004 2.17695 21.95 2.32764C21.9996 2.47836 22.0153 2.65753 21.9972 2.86499L20.9186 15.1942C20.8858 15.5679 20.7341 15.8683 20.4632 16.0956C20.1923 16.3229 19.8701 16.4202 19.4965 16.3875Z" fill="white"/>
</svg>
